<svg id="Ebene_1" data-name="Ebene 1" xmlns="http://www.w3.org/2000/svg" xmlns:xlink="http://www.w3.org/1999/xlink" viewBox="0 0 50 50"><defs><style>.cls-1{fill:#e02a35;}.cls-2{fill:#4267b0;}.cls-3{fill:url(#Unbenannter_Verlauf_8);}.cls-4{fill:url(#Unbenannter_Verlauf_8-2);}</style><linearGradient id="Unbenannter_Verlauf_8" x1="24.44" y1="2.1" x2="29.41" y2="2.1" gradientUnits="userSpaceOnUse"><stop offset="0" stop-color="#4267b0"/><stop offset="0.14" stop-color="#5161a4"/><stop offset="0.41" stop-color="#785286"/><stop offset="0.78" stop-color="#b73a55"/><stop offset="1" stop-color="#e02a35"/></linearGradient><linearGradient id="Unbenannter_Verlauf_8-2" x1="22.14" y1="24.52" x2="27.12" y2="24.52" xlink:href="#Unbenannter_Verlauf_8"/></defs><path class="cls-1" d="M48.6,48.92a.92.92,0,0,1-.1.46.73.73,0,0,1-.36.33,2.63,2.63,0,0,1-.75.21,8,8,0,0,1-1.21.08,8.33,8.33,0,0,1-1.1-.06,2.07,2.07,0,0,1-.75-.23,1.47,1.47,0,0,1-.5-.46,3.3,3.3,0,0,1-.35-.75L38.83,36.42c-.54-1.36-1.11-2.64-1.73-3.84a12.77,12.77,0,0,0-2.23-3.14,9.48,9.48,0,0,0-3.15-2.09,11.37,11.37,0,0,0-4.43-.77H22.14V49a.79.79,0,0,1-.12.42.76.76,0,0,1-.38.31,3.12,3.12,0,0,1-.71.19,7.95,7.95,0,0,1-2.25,0,3,3,0,0,1-.73-.19.83.83,0,0,1-.39-.31.88.88,0,0,1-.11-.42V2.42a2.18,2.18,0,0,1,.73-1.9A2.42,2.42,0,0,1,19.6,0H29C30.18,0,31.2,0,32,.1s1.54.14,2.21.25a16.91,16.91,0,0,1,5,1.61,11.81,11.81,0,0,1,3.5,2.75,10.79,10.79,0,0,1,2,3.69,14.26,14.26,0,0,1,.68,4.45,13.07,13.07,0,0,1-.69,4.4,10.71,10.71,0,0,1-2,3.42,12.4,12.4,0,0,1-3,2.56A20.13,20.13,0,0,1,35.83,25a10,10,0,0,1,2.29,1.42,11.19,11.19,0,0,1,1.88,2,18.67,18.67,0,0,1,1.64,2.75c.51,1,1,2.2,1.54,3.48l4.65,11.62c.33.89.54,1.51.64,1.84A3.87,3.87,0,0,1,48.6,48.92ZM40.33,13.35a9.8,9.8,0,0,0-1.42-5.41,8,8,0,0,0-4.77-3.17,15.35,15.35,0,0,0-2.42-.44c-.88-.09-2-.14-3.43-.14H22.14V22.46h7.15a15.16,15.16,0,0,0,5-.71,9.74,9.74,0,0,0,3.45-1.94,7.46,7.46,0,0,0,2-2.89A9.93,9.93,0,0,0,40.33,13.35Z"/><path class="cls-2" d="M2.6,0a1,1,0,0,0-.52.13,1.11,1.11,0,0,0-.36.41,2.06,2.06,0,0,0-.25.68,7.89,7.89,0,0,0-.07.94A7.31,7.31,0,0,0,1.47,3a2,2,0,0,0,.25.64.92.92,0,0,0,.36.37,1,1,0,0,0,.52.15H17.43V49a.66.66,0,0,0,.14.42.7.7,0,0,0,.37.32,4.08,4.08,0,0,0,.73.18,5.94,5.94,0,0,0,1.11.08,5.92,5.92,0,0,0,1.12-.08,4.22,4.22,0,0,0,.74-.18.84.84,0,0,0,.37-.32.8.8,0,0,0,.13-.42V4.2h6.68V0Z"/><rect class="cls-3" x="24.44" width="4.98" height="4.19"/><rect class="cls-4" x="22.14" y="22.46" width="4.98" height="4.12"/></svg>